PathFileType	4	(X/Y/Z)	C:/Users/Carlo/Dropbox/Carlos/SARAH/CongressoMarcha2025/WorkshopOpenSim/C3D/Caso02/Static.c3d.trc
DataRate	CameraRate	NumFrames	NumMarkers	Units	OrigDataRate	OrigDataStartFrame	OrigNumFrames
100.000000	100.000000	2	141	mm	100.000000	12	100
Frame#	Time	LFHD			RFHD			LBHD			RBHD			C7			T10			CLAV			STRN			RBAK			LSHO			LUPA			LELB			LFRM			LWRA			LWRB			LFIN			RSHO			RUPA			RELB			RFRM			RWRA			RWRB			RFIN			LASI			RASI			LPSI			RPSI			LTHI			LKNE			LTIB			LANK			LHEE			LTOE			RTHI			RKNE			RTIB			RANK			RHEE			RTOE			PELO			PELA			PELL			PELP			LFEO			LFEA			LFEL			LFEP			LTIO			LTIA			LTIL			LTIP			LFOO			LFOA			LFOL			LFOP			LTOO			LTOA			LTOL			LTOP			RFEO			RFEA			RFEL			RFEP			RTIO			RTIA			RTIL			RTIP			RFOO			RFOA			RFOL			RFOP			RTOO			RTOA			RTOL			RTOP			HEDO			HEDA			HEDL			HEDP			LCLO			LCLA			LCLL			LCLP			RCLO			RCLA			RCLL			RCLP			TRXO			TRXA			TRXL			TRXP			LHUO			LHUA			LHUL			LHUP			LRAO			LRAA			LRAL			LRAP			LHNO			LHNA			LHNL			LHNP			RHUO			RHUA			RHUL			RHUP			RRAO			RRAA			RRAL			RRAP			RHNO			RHNA			RHNL			RHNP			LHipAngles			LKneeAngles			LAbsAnkleAngle			LAnkleAngles			RHipAngles			RKneeAngles			RAnkleAngles			RAbsAnkleAngle			LPelvisAngles			RPelvisAngles			LFootProgressAngles			RFootProgressAngles			RNeckAngles			LNeckAngles			RSpineAngles			LSpineAngles			LShoulderAngles			LElbowAngles			LWristAngles			RShoulderAngles			RElbowAngles			RWristAngles			RThoraxAngles			LThoraxAngles			RHeadAngles			LHeadAngles			
		X1	Y1	Z1	X2	Y2	Z2	X3	Y3	Z3	X4	Y4	Z4	X5	Y5	Z5	X6	Y6	Z6	X7	Y7	Z7	X8	Y8	Z8	X9	Y9	Z9	X10	Y10	Z10	X11	Y11	Z11	X12	Y12	Z12	X13	Y13	Z13	X14	Y14	Z14	X15	Y15	Z15	X16	Y16	Z16	X17	Y17	Z17	X18	Y18	Z18	X19	Y19	Z19	X20	Y20	Z20	X21	Y21	Z21	X22	Y22	Z22	X23	Y23	Z23	X24	Y24	Z24	X25	Y25	Z25	X26	Y26	Z26	X27	Y27	Z27	X28	Y28	Z28	X29	Y29	Z29	X30	Y30	Z30	X31	Y31	Z31	X32	Y32	Z32	X33	Y33	Z33	X34	Y34	Z34	X35	Y35	Z35	X36	Y36	Z36	X37	Y37	Z37	X38	Y38	Z38	X39	Y39	Z39	X40	Y40	Z40	X41	Y41	Z41	X42	Y42	Z42	X43	Y43	Z43	X44	Y44	Z44	X45	Y45	Z45	X46	Y46	Z46	X47	Y47	Z47	X48	Y48	Z48	X49	Y49	Z49	X50	Y50	Z50	X51	Y51	Z51	X52	Y52	Z52	X53	Y53	Z53	X54	Y54	Z54	X55	Y55	Z55	X56	Y56	Z56	X57	Y57	Z57	X58	Y58	Z58	X59	Y59	Z59	X60	Y60	Z60	X61	Y61	Z61	X62	Y62	Z62	X63	Y63	Z63	X64	Y64	Z64	X65	Y65	Z65	X66	Y66	Z66	X67	Y67	Z67	X68	Y68	Z68	X69	Y69	Z69	X70	Y70	Z70	X71	Y71	Z71	X72	Y72	Z72	X73	Y73	Z73	X74	Y74	Z74	X75	Y75	Z75	X76	Y76	Z76	X77	Y77	Z77	X78	Y78	Z78	X79	Y79	Z79	X80	Y80	Z80	X81	Y81	Z81	X82	Y82	Z82	X83	Y83	Z83	X84	Y84	Z84	X85	Y85	Z85	X86	Y86	Z86	X87	Y87	Z87	X88	Y88	Z88	X89	Y89	Z89	X90	Y90	Z90	X91	Y91	Z91	X92	Y92	Z92	X93	Y93	Z93	X94	Y94	Z94	X95	Y95	Z95	X96	Y96	Z96	X97	Y97	Z97	X98	Y98	Z98	X99	Y99	Z99	X100	Y100	Z100	X101	Y101	Z101	X102	Y102	Z102	X103	Y103	Z103	X104	Y104	Z104	X105	Y105	Z105	X106	Y106	Z106	X107	Y107	Z107	X108	Y108	Z108	X109	Y109	Z109	X110	Y110	Z110	X111	Y111	Z111	X112	Y112	Z112	X113	Y113	Z113	X114	Y114	Z114	X115	Y115	Z115	X116	Y116	Z116	X117	Y117	Z117	X118	Y118	Z118	X119	Y119	Z119	X120	Y120	Z120	X121	Y121	Z121	X122	Y122	Z122	X123	Y123	Z123	X124	Y124	Z124	X125	Y125	Z125	X126	Y126	Z126	X127	Y127	Z127	X128	Y128	Z128	X129	Y129	Z129	X130	Y130	Z130	X131	Y131	Z131	X132	Y132	Z132	X133	Y133	Z133	X134	Y134	Z134	X135	Y135	Z135	X136	Y136	Z136	X137	Y137	Z137	X138	Y138	Z138	X139	Y139	Z139	X140	Y140	Z140	X141	Y141	Z141	

13	0.12	-356.2090759277345	1745.030883789063	383.7658081054689	-481.3219909667971	1732.714843750001	361.7431030273439	-328.6543884277345	1696.021972656251	237.4483184814454	-469.963562011719	1693.516967773438	225.6021881103517	-403.5736389160159	1518.91455078125	210.8494415283204	-403.0920104980471	1256.931396484375	161.9387664794922	-410.8714599609377	1466.978393554688	354.4957275390626	-409.0765075683596	1287.25634765625	404.7038879394534	-452.9243469238284	1351.493408203125	139.1139831542969	-225.3251953125001	1502.944213867188	259.7943420410157	-94.010368347168	1457.353637695313	272.1708068847657	58.10482406616214	1406.10693359375	296.0937805175782	37.16086578369142	1412.369018554688	428.3738403320315	-72.98921203613284	1397.132690429688	525.3839111328127	-3.458749771118166	1393.648193359375	558.5408325195315	-55.78346252441409	1421.30224609375	620.0577392578127	-590.0313720703127	1504.218505859375	247.2028198242189	-759.101989746094	1433.521240234375	227.5632476806642	-865.7628784179692	1395.209594726563	243.4652404785157	-836.0043945312505	1436.548706054688	379.4401855468751	-783.6071166992192	1434.6728515625	493.8858032226565	-858.7796020507817	1424.603881835938	504.4687194824221	-814.3886108398442	1461.523071289063	575.860290527344	-301.4471435546876	1026.963012695313	358.0320434570314	-518.8670654296877	1031.466552734375	357.5538024902345	-344.9645080566407	1034.098022460938	168.5973052978516	-482.8543395996096	1031.018676757813	166.4645538330079	-213.3748626708986	757.864685058594	318.7098388671876	-236.8774414062501	523.4092407226565	287.7001953125001	-201.9586639404298	317.4274902343751	242.1764984130861	-208.7107696533204	79.65388488769534	220.6877441406251	-250.8552398681642	38.16369628906251	169.0940856933594	-230.8745727539064	44.49640274047853	365.8860473632814	-590.5054931640627	668.7408447265627	311.5914611816407	-564.955261230469	513.4598388671877	296.1424865722657	-593.5698242187502	267.3797607421876	247.3051757812501	-586.8833007812502	83.32701110839847	220.6572113037111	-533.1653442382815	46.54414367675783	165.6666259765626	-570.7005004882815	42.8778762817383	363.5236206054689	-412.0981750488284	930.1112670898442	306.9842529296876	-412.4300842285159	927.8872680664067	436.9441833496096	-282.1469726562501	927.419555664063	307.2700805664064	-409.4117431640627	1060.043823242188	309.2146301269532	-295.3663024902345	517.1851806640627	273.5381164550782	-388.274597167969	473.1914062500002	676.5796508789065	106.7513122558594	559.9763183593752	370.9042968750001	-347.1282653808595	928.5771484375005	306.5113220214845	-253.1102905273439	74.82314300537112	226.1965179443361	-196.7120971679689	35.27520751953126	646.0742187500002	166.7023315429688	120.4995193481446	174.1092834472657	-293.3428039550782	496.0020751953127	271.2710876464845	-225.7679595947267	68.15653228759768	359.9348449707032	-246.8946380615236	257.8185424804689	355.9766235351564	-37.04600524902345	88.76475524902347	340.1103820800782	-245.0389709472657	62.04874420166018	170.132308959961	-219.3442687988282	70.19246673583987	423.2023620605471	-226.3865051269532	133.4131317138672	421.8829345703127	-156.4369506835938	77.06188964843753	416.5942077636721	-225.7679443359376	68.15652465820315	359.9348449707032	-505.6911621093752	510.073669433594	284.4570312500001	-425.5525512695315	482.014831542969	699.0191040039065	-91.1676940917969	486.3883056640627	202.7227935791017	-477.0679931640627	931.645629882813	307.4571838378907	-542.0491333007815	79.48612213134768	221.0318298339845	-550.6062622070315	19.67869949340821	631.9639282226565	-128.2296752929688	44.03477478027345	224.4894561767579	-507.4727172851565	488.9754638671877	281.3493041992189	-581.2340087890627	65.51172637939456	353.8626403808595	-564.7061767578127	259.0950622558595	360.5852050781251	-390.9520263671877	48.02344512939456	389.6366882324221	-545.0062255859377	69.05033111572268	162.8970184326172	-593.3098754882815	64.33220672607425	417.5178833007815	-587.8005981445315	128.8599548339844	419.758728027344	-529.8825683593752	58.50278091430667	429.442565917969	-581.2339477539065	65.51173400878909	353.8626708984376	-392.8444519042971	1617.359985351563	212.4546356201173	-422.490173339844	1684.559692382813	427.6437988281252	-167.4322814941407	1629.465209960938	239.728485107422	-396.240173339844	1834.244018554688	144.257797241211	-228.8545837402345	1445.5185546875	267.1316833496095	-146.5697631835938	1463.62353515625	448.4106445312502	-216.6903228759767	1643.440673828126	241.8429718017579	-410.6288757324221	1466.959106445313	347.499969482422	-587.4026489257815	1446.764892578125	254.6975250244142	-681.9403076171877	1465.401245117188	430.7213439941409	-578.3073730468752	1247.983764648438	280.6280822753907	-410.6289062500002	1466.959106445313	347.4999389648439	-410.628845214844	1466.959106445313	347.5000000000001	-417.5709533691409	1467.51123046875	547.6654052734377	-610.7923583984377	1465.907104492188	340.5608520507814	-409.5965881347659	1266.676025390625	348.0882873535157	46.2640953063965	1364.505981445313	291.4669494628907	69.94917297363284	1358.789916992188	4.671081542968752	-34.940975189209	1088.372314453125	290.2641906738282	-228.8546142578126	1445.5185546875	267.1315917968751	-38.87514495849611	1388.449951171875	542.5985107421877	185.0941772460938	1322.227172851563	624.8430786132815	-108.7339248657227	1150.898681640625	541.563903808594	40.30432891845705	1366.18212890625	309.0462646484376	-77.19599151611331	1404.513427734375	701.4503173828127	-62.81671524047854	1567.560058593751	688.431335449219	81.81707000732425	1393.640625	740.9094848632815	-38.87520980834962	1388.449829101563	542.5984497070315	-851.5820922851567	1354.344360351563	248.0678253173829	-825.9400024414067	1300.671630859375	-25.49763488769533	-940.6213378906255	1613.098999023438	188.9550170898438	-587.4025878906252	1446.764892578125	254.6975250244142	-820.0414428710942	1422.987548828125	501.0320434570315	-1050.960205078125	1354.358764648438	548.446716308594	-898.1288452148442	1649.915405273438	449.190124511719	-849.3742675781255	1359.149291992188	265.7752685546876	-801.1152343750005	1451.26953125	658.533630371094	-825.7329711914067	1608.495483398438	633.2593994140627	-642.9995727539065	1472.363403320313	635.7459106445315	-820.0414428710942	1422.987670898438	501.0320434570315	-8.321382522583011	12.78702068328858	-3.630549907684328	2.018376350402833	-20.47472953796387	1.093559980392456	0	0	7.323291301727298	3.045664035642577e-13	1.070332407951355	7.324573516845707	-2.700438976287843	11.13250350952149	-2.129993438720704	0.09654169529676443	-11.72510051727295	5.316754817962648	1.347723473620055e-13	-10.13312149047852	6.368594169616703	0	0	6.268842697143558	-1.184292912483216	0.146347999572754	0.9834268689155583	1.184292912483216	-0.146347999572754	0.9834268689155583	-6.387443065643314	-5.794505119323732	-91.84312438964847	-4.964241027832033	-10.74004650115967	-88.93843078613284	2.738378286361695	4.919727325439455	-17.08341217041016	-2.738378286361695	-4.919727325439455	-17.08341217041016	1.518569707870484	1.834363818168641	-1.09989082813263	-1.518569707870484	-1.834363818168641	-1.09989082813263	73.32167816162112	-0.1697053909301758	2.899842500686646	-9.939233892638918e-16	2.871817367244845e-13	104.5494766235352	1.836883306503297	102.1697006225587	-4.825309753417971	71.02259826660159	-11.38821697235108	0.465851277112961	1.590277359294756e-15	-4.28102648816764e-12	102.7832641601563	-4.675952434539797	99.30958557128912	-1.680756092071534	-0.2953027486801149	-1.986353039741517	-0.1683028042316437	0.2953027486801149	1.986353039741517	-0.1683028042316437	-0.8557030558586125	-7.492413520812992	17.45520019531251	0.8557030558586125	7.492413520812992	17.45520019531251	
14	0.13	-356.3123474121095	1744.862670898438	384.196472167969	-481.4106445312502	1732.550659179688	362.0875244140626	-328.6394348144532	1696.250244140626	237.7902221679689	-469.9770507812502	1693.720458984376	225.8787689208986	-403.5249938964846	1518.936767578125	210.7856903076173	-403.1072692871096	1256.922119140625	161.8927154541016	-410.8300781250002	1467.0576171875	354.4770812988282	-409.1189880371096	1287.338989257813	404.696960449219	-452.9241638183596	1351.52978515625	139.0383911132813	-225.2778472900392	1502.99072265625	259.8419799804689	-93.9550704956055	1457.336547851563	272.322723388672	58.12895584106448	1406.071044921875	296.3580627441407	37.06592559814455	1412.289184570313	428.6416015625002	-73.20344543457034	1397.09375	525.559265136719	-3.704216718673708	1393.581787109375	558.793884277344	-56.09820556640628	1421.246826171875	620.264831542969	-589.8956298828127	1504.087646484375	247.3272705078126	-759.1005859375002	1433.493896484375	227.6489868164064	-865.7168579101567	1395.117431640625	243.6543579101564	-835.791870117188	1436.220458984375	379.641326904297	-783.2429199218755	1434.168212890625	494.0365295410159	-858.428833007813	1424.104248046875	504.6809997558596	-813.9263305664067	1460.860595703125	576.085876464844	-301.6507568359376	1026.983642578125	358.0679016113282	-519.049987792969	1031.513061523438	357.5221252441407	-345.0706787109376	1034.076782226563	168.6247558593751	-482.9476013183596	1030.996704101563	166.4952545166016	-213.4687957763673	757.8892211914065	318.6495971679689	-236.9859313964845	523.4620361328127	287.6431884765626	-202.0196380615236	317.4700012207032	242.1044769287111	-208.7181549072267	79.68591308593753	220.6723785400392	-250.8713989257814	38.15858840942384	169.1182403564454	-230.8324127197267	44.51661682128908	365.8840942382814	-590.636657714844	668.7565917968752	311.5974426269532	-565.1201171875002	513.4897460937502	296.1352844238282	-593.3112792968752	267.2435302734376	247.368621826172	-586.8934326171877	83.34990692138675	220.6516876220704	-533.1531372070315	46.55451965332033	165.6789093017579	-570.7122802734377	42.90388488769533	363.5184936523439	-412.2879943847659	930.1306152343755	307.0140686035157	-412.6598205566409	927.9438476562505	436.974548339844	-282.3372192382814	927.4231567382817	307.340301513672	-409.5863952636721	1060.0634765625	309.2080993652345	-295.4850463867189	517.2242431640627	273.5296325683595	-388.0433349609377	473.1931762695315	676.6331176757815	106.6896362304688	560.1082153320315	370.5588989257814	-347.3181762695314	928.5883789062505	306.5614013671876	-253.1099548339845	74.83956146240237	226.2293548583986	-196.2463531494142	35.39509582519533	646.0837402343752	166.6587219238282	120.6666488647462	173.6827087402344	-293.4559936523439	496.041442871094	271.2647399902345	-225.7223968505861	68.19593811035159	359.9595336914064	-246.9241180419923	257.8493041992189	355.9905700683595	-37.0148162841797	88.87574768066409	340.0729980468751	-245.0515441894532	62.06315612792972	170.1637115478516	-219.2793426513673	70.2402038574219	423.224792480469	-226.3465881347657	133.4580078125001	421.9018249511721	-156.3768157958985	77.13348388671878	416.5959472656252	-225.7223968505861	68.19595336914065	359.9595336914064	-505.858825683594	510.1084594726565	284.4339294433595	-425.6111145019534	482.0155029296877	698.9651489257815	-91.3623962402344	486.4585571289065	202.5901794433595	-477.257751464844	931.672729492188	307.4667358398439	-542.055847167969	79.5397644042969	220.9279937744142	-549.6837158203127	19.57503128051759	631.835144042969	-128.2256774902344	44.37379074096681	223.478240966797	-507.632507324219	489.010437011719	281.3221130371095	-581.2515869140627	65.56723785400393	353.7558593750001	-564.841735839844	259.1617431640626	360.4435119628907	-390.9642639160159	48.20085144042972	389.5607910156252	-544.9982910156252	69.09095764160159	162.7948150634766	-593.3359985351565	64.3926696777344	417.4095764160159	-587.8660278320315	128.9242095947266	419.6387939453127	-529.906921386719	58.60386657714847	429.3445129394534	-581.2515869140627	65.56723785400393	353.7558898925782	-392.794616699219	1617.620849609376	212.5429077148439	-422.5927734375002	1684.249877929688	427.8884277343752	-167.4034423828126	1629.756713867188	239.9762268066407	-396.2494201660159	1834.679199218751	144.9058227539063	-228.8192443847657	1445.56591796875	267.1806945800782	-146.5982360839844	1463.661865234375	448.4567565917971	-216.6153717041017	1643.455444335938	241.8910675048829	-410.5870361328127	1467.037719726563	347.4812927246095	-587.1960449218752	1446.638427734375	254.8302459716798	-681.6062622070315	1465.172241210938	430.7117614746096	-577.864929199219	1248.064819335938	280.7640991210939	-410.5870361328127	1467.037719726563	347.4813537597657	-410.5870361328127	1467.037841796875	347.4813537597657	-417.5373840332034	1467.605346679688	547.5344238281252	-610.6385498046877	1466.052856445313	340.5338439941407	-409.6223449707034	1266.866577148438	348.0826721191407	46.28142547607423	1364.473999023438	291.7141723632814	70.19128417968753	1358.818725585938	4.913635253906252	-34.99668121337892	1088.339477539063	290.3831481933595	-228.8192749023439	1445.566040039063	267.1806945800782	-39.10774612426759	1388.3974609375	542.8106079101565	184.8040924072266	1322.093139648438	625.2723388671877	-109.0361022949219	1150.8232421875	541.6655273437502	40.30408859252931	1366.148681640625	309.2908020019532	-77.61271667480472	1404.456298828125	701.641296386719	-63.16355895996097	1567.521728515626	688.657165527344	81.3724060058594	1393.525634765625	741.2888793945315	-39.1077346801758	1388.3974609375	542.8106079101565	-851.5432739257817	1354.241088867188	248.1806030273439	-826.0497436523442	1301.0107421875	-25.63964843750001	-940.6026000976567	1613.258911132813	189.5361328125001	-587.1960449218752	1446.638427734375	254.8302154541017	-819.6843261718755	1422.482299804688	501.2021179199221	-1050.5634765625	1353.869873046875	548.7781372070315	-897.7438354492192	1649.508666992188	449.8008422851565	-849.313110351563	1359.018188476563	265.8922119140626	-800.5597534179692	1450.430786132813	658.706726074219	-825.137329101563	1607.687011718751	633.7866210937502	-642.4940185546877	1471.5009765625	635.7752075195315	-819.6843261718755	1422.482299804688	501.202087402344	-8.336937904357914	12.71920394897462	-3.657742261886598	2.009602069854737	-20.4902572631836	1.08272922039032	0	0	7.321640968322757	-3.066335434263185e-13	1.11345374584198	7.323038578033451	-2.691571474075318	11.16601085662842	-2.149658918380738	0.1168643236160279	-11.61135959625244	5.319711208343508	3.150135317528392e-13	-10.26755237579346	6.389879703521732	0	0	6.287138938903812	-1.190962553024292	0.1639380753040314	0.9674072861671452	1.190962553024292	-0.1639380753040314	0.9674072861671452	-6.410428047180179	-5.812043190002443	-91.85073852539065	-4.928830623626711	-10.74768829345703	-88.9428634643555	2.764610528945924	4.95716428756714	-16.92695045471192	-2.764610528945924	-4.95716428756714	-16.92695045471192	1.505709648132325	1.820683002471925	-1.088015675544739	-1.505709648132325	-1.820683002471925	-1.088015675544739	73.32463073730472	-0.1413413286209107	2.934592008590699	-6.460501871396618e-16	-1.564981976474867e-12	104.5601425170899	1.83808720111847	102.1654891967774	-4.81357002258301	71.01939392089847	-11.27871131896973	0.4645458757877352	-1.590277359294756e-15	-1.505595019317408e-12	102.8213653564454	-4.704097747802736	99.30876922607428	-1.686817288398744	-0.2761182188987733	-1.989820241928101	-0.1721079051494599	0.2761182188987733	1.989820241928101	-0.1721079051494599	-0.8705991506576543	-7.531197071075443	17.30744743347169	0.8705991506576543	7.531197071075443	17.30744743347169	
